<svg width="210mm" height="297mm" version="1.1" viewBox="0 0 210 297" xmlns="http://www.w3.org/2000/svg">
 <path d="m103.99 69.605a79.375 79.375 0 0 0-79.375 79.375 79.375 79.375 0 0 0 79.375 79.375 79.375 79.375 0 0 0 79.375-79.375 79.375 79.375 0 0 0-79.375-79.375zm38.922 37.085c0.0638 0-0.32097 0.61712-0.85524 1.3715-0.53425 0.75435-6.919 10.002-14.188 20.549-12.126 17.595-13.186 19.227-12.844 19.78 0.32245 0.52125 14.048 19.62 14.803 20.598 0.21519 0.27874-0.0749 0.35901-1.2728 0.35296l-1.5513-0.00776-6.9303-9.6557c-3.8115-5.3104-7.0125-9.6595-7.1138-9.665-0.1012-6e-3 -3.3397 4.3427-7.1964 9.663l-7.012 9.6733h-1.3942c-0.76676 0-1.3942-0.0663-1.3942-0.14727 0-0.081 3.4432-4.8787 7.6517-10.662 4.2086-5.7832 7.6522-10.583 7.6522-10.666s-3.1836-4.5828-7.0745-9.9989-7.0745-9.9054-7.0745-9.9766c0-0.0712 0.62386-0.12971 1.386-0.12971h1.3854l5.6167 7.8502c3.0891 4.3176 6.0204 8.4166 6.5138 9.109l0.89709 1.2588 6.7298-9.1814c5.8898-8.0351 22.948-30.115 23.266-30.115zm-111.34 21.079 1.6604 0.0129 1.6604 0.0134 21.017 31.461c11.559 17.304 20.964 31.461 20.898 31.461-0.0653 0-3.7464-4.8401-8.1804-10.756-4.7968-6.3999-13.378-18.518-21.187-29.921l-13.125-19.165-0.0739 19.237-0.07443 19.237h-2.5947v-20.79zm34.939 0h27.72v2.0211h-25.121v16.748h23.678v2.3099h-23.678v18.192h25.41v2.3099h-28.009v-20.79zm64.681 0h31.763v2.0216h-14.726v39.559h-1.1069c-0.60878 0-1.1938-0.0864-1.2997-0.19222-0.10586-0.10586-0.19222-9.0068-0.19222-19.78v-19.587h-14.438v-1.0108zm38.116 29.453h1.4883l-0.0946 3.9238c-0.0937 3.8914-0.10091 3.9295-0.90434 4.6199-0.8423 0.72381-2.1078 0.88005-3.2856 0.40565h-5e-4c-1.1009-0.44398-1.7259-2.3079-0.77359-2.3079 0.25971 0 0.77303 0.32436 1.141 0.72141 0.77208 0.8331 1.3343 0.90945 1.9756 0.2682 0.36382-0.36383 0.4537-1.1646 0.4537-4.0421zm6.489 0c1.9528 0 3.3285 0.84516 3.3285 2.0448 0 0.48275-1.0565 0.27464-1.588-0.31264-0.90225-0.997-3.3207-0.59466-3.3207 0.55242 0 0.74173 0.51689 1.0974 2.4526 1.6867 2.1195 0.64528 2.9068 1.573 2.622 3.0908-0.36007 1.9194-3.473 2.8875-5.4136 1.6836-0.64338-0.39913-1.3932-1.4615-1.3932-1.9735 0-0.4171 1.2377-0.0222 1.8505 0.59066 0.83066 0.83066 2.0395 0.94112 2.9936 0.27285 0.70784-0.49582 0.84085-1.342 0.28112-1.7906-0.19854-0.1591-1.1135-0.50478-2.033-0.76843-0.91945-0.26365-1.9262-0.73405-2.2376-1.0454-0.84468-0.8447-0.72802-2.1813 0.27803-3.1874 0.68966-0.68965 1.0882-0.84388 2.1797-0.84388zm-12.979 7.3954c0.14205 8e-3 0.2668 0.0689 0.38137 0.18346 0.47739 0.47739 0.41069 1.2807-0.12351 1.4857-0.58158 0.22316-0.52472 0.23387-0.92966-0.17105-0.49978-0.49978-0.42622-1.034 0.18706-1.3622 0.18346-0.0982 0.34266-0.14371 0.48474-0.13591z" fill="#000000" style="paint-order:stroke fill markers"/>
</svg>
